<svg xmlns="http://www.w3.org/2000/svg" width="19.2" height="12" viewBox="0 0 19.2 12">
  <path id="google_plus_icon" data-name="google plus icon" d="M346.142,105.889a5.535,5.535,0,0,1-5.763,5.861,6,6,0,0,1,0-12,5.73,5.73,0,0,1,4.019,1.572l-1.629,1.563a3.368,3.368,0,0,0-2.39-.925,3.791,3.791,0,0,0,0,7.58,3.249,3.249,0,0,0,3.4-2.587h-3.4v-2.062h5.664A5.018,5.018,0,0,1,346.142,105.889Zm7.437-.8v1.75h-1.742v1.741h-1.75v-1.741h-1.741v-1.75h1.741V103.35h1.75v1.742Z" transform="translate(-334.379 -99.75)" fill="#2baaec"/>
</svg>
