<svg xmlns="http://www.w3.org/2000/svg" width="14.008" height="14.005" viewBox="0 0 14.008 14.005">
  <path id="instagram_icon" data-name="instagram icon" d="M392.935,108.634a3.878,3.878,0,0,1-4.065,4.066c-1.157.066-4.622.066-5.779,0a3.878,3.878,0,0,1-4.065-4.066c-.066-1.156-.066-4.621,0-5.778a3.873,3.873,0,0,1,4.065-4.062c1.157-.066,4.622-.066,5.779,0a3.878,3.878,0,0,1,4.065,4.065C393,104.016,393,107.478,392.935,108.634Zm-1.212-2.887a15.418,15.418,0,0,0-.282-4.128,2.355,2.355,0,0,0-1.331-1.331,30.354,30.354,0,0,0-8.256,0,2.358,2.358,0,0,0-1.331,1.331,15.533,15.533,0,0,0-.281,4.128,15.418,15.418,0,0,0,.281,4.128,2.361,2.361,0,0,0,1.331,1.331,30.462,30.462,0,0,0,8.256,0,2.361,2.361,0,0,0,1.331-1.331A15.409,15.409,0,0,0,391.723,105.747Zm-2.15,0a3.59,3.59,0,1,1-3.591-3.591A3.585,3.585,0,0,1,389.573,105.747Zm-1.257,0a2.334,2.334,0,1,0-2.334,2.334A2.336,2.336,0,0,0,388.316,105.747Zm1.4-2.9a.838.838,0,1,1,.837-.838A.836.836,0,0,1,389.72,102.847Z" transform="translate(-378.976 -98.744)" fill="#2baaec"/>
</svg>
